{"asset":{"version":"2.0","generator":"ARR MAAS aesthetic projection exporter"},"scene":0,"scenes":[{"nodes":[0]}],"nodes":[{"mesh":0,"name":"MAAS textured facade mesh"}],"meshes":[{"name":"MAAS textured facade mesh","primitives":[{"attributes":{"POSITION":0,"TEXCOORD_0":1},"indices":2,"material":0,"mode":4}]}],"materials":[{"name":"AI facade atlas material","pbrMetallicRoughness":{"baseColorTexture":{"index":0},"metallicFactor":0.0,"roughnessFactor":0.78},"doubleSided":true}],"textures":[{"source":0}],"images":[{"uri":"baked_texture_atlas.png","mimeType":"image/png"}],"buffers":[{"uri":"data:application/octet-stream;base64,","byteLength":936}],"bufferViews":[{"buffer":0,"byteOffset":0,"byteLength":432,"target":34962},{"buffer":0,"byteOffset":432,"byteLength":288,"target":34962},{"buffer":0,"byteOffset":720,"byteLength":216,"target":34963}],"accessors":[{"bufferView":0,"byteOffset":0,"componentType":5126,"count":36,"type":"VEC3","min":[-4.0142,0.0,0.0],"max":[11.1118,13.3291,16.8]},{"bufferView":1,"byteOffset":0,"componentType":5126,"count":36,"type":"VEC2"},{"bufferView":2,"byteOffset":0,"componentType":5125,"count":54,"type":"SCALAR"}]}