{"asset":{"version":"2.0","generator":"ARR MAAS aesthetic projection exporter"},"scene":0,"scenes":[{"nodes":[0]}],"nodes":[{"mesh":0,"name":"MAAS textured facade mesh"}],"meshes":[{"name":"MAAS textured facade mesh","primitives":[{"attributes":{"POSITION":0,"TEXCOORD_0":1},"indices":2,"material":0,"mode":4}]}],"materials":[{"name":"AI facade atlas material","pbrMetallicRoughness":{"baseColorTexture":{"index":0},"metallicFactor":0.0,"roughnessFactor":0.78},"doubleSided":true}],"textures":[{"source":0}],"images":[{"uri":"baked_texture_atlas.png","mimeType":"image/png"}],"buffers":[{"uri":"data:application/octet-stream;base64,","byteLength":6864}],"bufferViews":[{"buffer":0,"byteOffset":0,"byteLength":3168,"target":34962},{"buffer":0,"byteOffset":3168,"byteLength":2112,"target":34962},{"buffer":0,"byteOffset":5280,"byteLength":1584,"target":34963}],"accessors":[{"bufferView":0,"byteOffset":0,"componentType":5126,"count":264,"type":"VEC3","min":[-2.8559,-6.2885,0.0],"max":[11.7797,2.8244,11.2]},{"bufferView":1,"byteOffset":0,"componentType":5126,"count":264,"type":"VEC2"},{"bufferView":2,"byteOffset":0,"componentType":5125,"count":396,"type":"SCALAR"}]}